<mxfile host="app.diagrams.net" modified="2024-02-06T21:08:06.118Z" agent="Mozilla/5.0 (Windows NT 10.0; Win64; x64) AppleWebKit/537.36 (KHTML, like Gecko) Chrome/120.0.0.0 Safari/537.36 OPR/106.0.0.0" etag="GWWLrkypOVeCgr52b8eD" version="23.1.1" type="device">
  <diagram name="Page-1" id="H8ntc2B-IYQj8NM_hgJr">
    <mxGraphModel dx="1532" dy="820" grid="1" gridSize="10" guides="1" tooltips="1" connect="1" arrows="1" fold="1" page="1" pageScale="1" pageWidth="827" pageHeight="1169" math="0" shadow="0">
      <root>
        <mxCell id="0" />
        <mxCell id="1" parent="0" />
        <mxCell id="1_1kWUtyBtne64YVCPKi-47" value="" style="edgeStyle=orthogonalEdgeStyle;rounded=0;orthogonalLoop=1;jettySize=auto;html=1;endArrow=baseDash;endFill=0;" parent="1" source="1_1kWUtyBtne64YVCPKi-23" target="1_1kWUtyBtne64YVCPKi-46" edge="1">
          <mxGeometry relative="1" as="geometry" />
        </mxCell>
        <mxCell id="UUWKYqGzad0E9Pj7y7_Q-2" style="edgeStyle=orthogonalEdgeStyle;rounded=0;orthogonalLoop=1;jettySize=auto;html=1;endArrow=baseDash;endFill=0;" edge="1" parent="1" source="1_1kWUtyBtne64YVCPKi-23" target="igtIyiMLG_RaECPwUn3D-18">
          <mxGeometry relative="1" as="geometry" />
        </mxCell>
        <mxCell id="1_1kWUtyBtne64YVCPKi-23" value="USER" style="swimlane;fontStyle=0;childLayout=stackLayout;horizontal=1;startSize=30;horizontalStack=0;resizeParent=1;resizeParentMax=0;resizeLast=0;collapsible=1;marginBottom=0;whiteSpace=wrap;html=1;" parent="1" vertex="1">
          <mxGeometry x="197" y="10" width="140" height="180" as="geometry" />
        </mxCell>
        <mxCell id="1_1kWUtyBtne64YVCPKi-24" value="Nom&lt;br&gt;" style="text;strokeColor=none;fillColor=none;align=left;verticalAlign=middle;spacingLeft=4;spacingRight=4;overflow=hidden;points=[[0,0.5],[1,0.5]];portConstraint=eastwest;rotatable=0;whiteSpace=wrap;html=1;" parent="1_1kWUtyBtne64YVCPKi-23" vertex="1">
          <mxGeometry y="30" width="140" height="30" as="geometry" />
        </mxCell>
        <mxCell id="1_1kWUtyBtne64YVCPKi-25" value="Prénom" style="text;strokeColor=none;fillColor=none;align=left;verticalAlign=middle;spacingLeft=4;spacingRight=4;overflow=hidden;points=[[0,0.5],[1,0.5]];portConstraint=eastwest;rotatable=0;whiteSpace=wrap;html=1;" parent="1_1kWUtyBtne64YVCPKi-23" vertex="1">
          <mxGeometry y="60" width="140" height="30" as="geometry" />
        </mxCell>
        <mxCell id="1_1kWUtyBtne64YVCPKi-31" value="Email" style="text;strokeColor=none;fillColor=none;align=left;verticalAlign=middle;spacingLeft=4;spacingRight=4;overflow=hidden;points=[[0,0.5],[1,0.5]];portConstraint=eastwest;rotatable=0;whiteSpace=wrap;html=1;" parent="1_1kWUtyBtne64YVCPKi-23" vertex="1">
          <mxGeometry y="90" width="140" height="30" as="geometry" />
        </mxCell>
        <mxCell id="1_1kWUtyBtne64YVCPKi-32" value="Date d&#39;inscription" style="text;strokeColor=none;fillColor=none;align=left;verticalAlign=middle;spacingLeft=4;spacingRight=4;overflow=hidden;points=[[0,0.5],[1,0.5]];portConstraint=eastwest;rotatable=0;whiteSpace=wrap;html=1;" parent="1_1kWUtyBtne64YVCPKi-23" vertex="1">
          <mxGeometry y="120" width="140" height="30" as="geometry" />
        </mxCell>
        <mxCell id="1_1kWUtyBtne64YVCPKi-26" value="(Tables rejoints)" style="text;strokeColor=none;fillColor=none;align=left;verticalAlign=middle;spacingLeft=4;spacingRight=4;overflow=hidden;points=[[0,0.5],[1,0.5]];portConstraint=eastwest;rotatable=0;whiteSpace=wrap;html=1;" parent="1_1kWUtyBtne64YVCPKi-23" vertex="1">
          <mxGeometry y="150" width="140" height="30" as="geometry" />
        </mxCell>
        <mxCell id="1_1kWUtyBtne64YVCPKi-51" style="edgeStyle=orthogonalEdgeStyle;rounded=0;orthogonalLoop=1;jettySize=auto;html=1;entryX=0.5;entryY=0;entryDx=0;entryDy=0;endArrow=baseDash;endFill=0;" parent="1" source="1_1kWUtyBtne64YVCPKi-27" target="1_1kWUtyBtne64YVCPKi-42" edge="1">
          <mxGeometry relative="1" as="geometry" />
        </mxCell>
        <mxCell id="1_1kWUtyBtne64YVCPKi-27" value="TABLE de jeu" style="swimlane;fontStyle=0;childLayout=stackLayout;horizontal=1;startSize=30;horizontalStack=0;resizeParent=1;resizeParentMax=0;resizeLast=0;collapsible=1;marginBottom=0;whiteSpace=wrap;html=1;" parent="1" vertex="1">
          <mxGeometry x="530" y="170" width="140" height="240" as="geometry" />
        </mxCell>
        <mxCell id="1_1kWUtyBtne64YVCPKi-28" value="(ID USER)" style="text;strokeColor=none;fillColor=none;align=left;verticalAlign=middle;spacingLeft=4;spacingRight=4;overflow=hidden;points=[[0,0.5],[1,0.5]];portConstraint=eastwest;rotatable=0;whiteSpace=wrap;html=1;" parent="1_1kWUtyBtne64YVCPKi-27" vertex="1">
          <mxGeometry y="30" width="140" height="30" as="geometry" />
        </mxCell>
        <mxCell id="1_1kWUtyBtne64YVCPKi-29" value="Nom" style="text;strokeColor=none;fillColor=none;align=left;verticalAlign=middle;spacingLeft=4;spacingRight=4;overflow=hidden;points=[[0,0.5],[1,0.5]];portConstraint=eastwest;rotatable=0;whiteSpace=wrap;html=1;" parent="1_1kWUtyBtne64YVCPKi-27" vertex="1">
          <mxGeometry y="60" width="140" height="30" as="geometry" />
        </mxCell>
        <mxCell id="1_1kWUtyBtne64YVCPKi-33" value="Système utilisé" style="text;strokeColor=none;fillColor=none;align=left;verticalAlign=middle;spacingLeft=4;spacingRight=4;overflow=hidden;points=[[0,0.5],[1,0.5]];portConstraint=eastwest;rotatable=0;whiteSpace=wrap;html=1;" parent="1_1kWUtyBtne64YVCPKi-27" vertex="1">
          <mxGeometry y="90" width="140" height="30" as="geometry" />
        </mxCell>
        <mxCell id="1_1kWUtyBtne64YVCPKi-34" value="Img Profil" style="text;strokeColor=none;fillColor=none;align=left;verticalAlign=middle;spacingLeft=4;spacingRight=4;overflow=hidden;points=[[0,0.5],[1,0.5]];portConstraint=eastwest;rotatable=0;whiteSpace=wrap;html=1;" parent="1_1kWUtyBtne64YVCPKi-27" vertex="1">
          <mxGeometry y="120" width="140" height="30" as="geometry" />
        </mxCell>
        <mxCell id="1_1kWUtyBtne64YVCPKi-35" value="Nom Joueurs" style="text;strokeColor=none;fillColor=none;align=left;verticalAlign=middle;spacingLeft=4;spacingRight=4;overflow=hidden;points=[[0,0.5],[1,0.5]];portConstraint=eastwest;rotatable=0;whiteSpace=wrap;html=1;" parent="1_1kWUtyBtne64YVCPKi-27" vertex="1">
          <mxGeometry y="150" width="140" height="30" as="geometry" />
        </mxCell>
        <mxCell id="1_1kWUtyBtne64YVCPKi-30" value="Nom Personnages" style="text;strokeColor=none;fillColor=none;align=left;verticalAlign=middle;spacingLeft=4;spacingRight=4;overflow=hidden;points=[[0,0.5],[1,0.5]];portConstraint=eastwest;rotatable=0;whiteSpace=wrap;html=1;" parent="1_1kWUtyBtne64YVCPKi-27" vertex="1">
          <mxGeometry y="180" width="140" height="30" as="geometry" />
        </mxCell>
        <mxCell id="1_1kWUtyBtne64YVCPKi-36" value="Chat" style="text;strokeColor=none;fillColor=none;align=left;verticalAlign=middle;spacingLeft=4;spacingRight=4;overflow=hidden;points=[[0,0.5],[1,0.5]];portConstraint=eastwest;rotatable=0;whiteSpace=wrap;html=1;" parent="1_1kWUtyBtne64YVCPKi-27" vertex="1">
          <mxGeometry y="210" width="140" height="30" as="geometry" />
        </mxCell>
        <mxCell id="1_1kWUtyBtne64YVCPKi-37" value="Personnages" style="swimlane;fontStyle=0;childLayout=stackLayout;horizontal=1;startSize=30;horizontalStack=0;resizeParent=1;resizeParentMax=0;resizeLast=0;collapsible=1;marginBottom=0;whiteSpace=wrap;html=1;" parent="1" vertex="1">
          <mxGeometry x="687" y="330" width="140" height="90" as="geometry" />
        </mxCell>
        <mxCell id="1_1kWUtyBtne64YVCPKi-38" value="Nom" style="text;strokeColor=none;fillColor=none;align=left;verticalAlign=middle;spacingLeft=4;spacingRight=4;overflow=hidden;points=[[0,0.5],[1,0.5]];portConstraint=eastwest;rotatable=0;whiteSpace=wrap;html=1;" parent="1_1kWUtyBtne64YVCPKi-37" vertex="1">
          <mxGeometry y="30" width="140" height="30" as="geometry" />
        </mxCell>
        <mxCell id="1_1kWUtyBtne64YVCPKi-39" value="IMG Profil" style="text;strokeColor=none;fillColor=none;align=left;verticalAlign=middle;spacingLeft=4;spacingRight=4;overflow=hidden;points=[[0,0.5],[1,0.5]];portConstraint=eastwest;rotatable=0;whiteSpace=wrap;html=1;" parent="1_1kWUtyBtne64YVCPKi-37" vertex="1">
          <mxGeometry y="60" width="140" height="30" as="geometry" />
        </mxCell>
        <mxCell id="1_1kWUtyBtne64YVCPKi-50" value="" style="edgeStyle=orthogonalEdgeStyle;rounded=0;orthogonalLoop=1;jettySize=auto;html=1;endArrow=baseDash;endFill=0;" parent="1" source="1_1kWUtyBtne64YVCPKi-41" target="1_1kWUtyBtne64YVCPKi-29" edge="1">
          <mxGeometry relative="1" as="geometry" />
        </mxCell>
        <mxCell id="1_1kWUtyBtne64YVCPKi-41" value="Créent" style="ellipse;whiteSpace=wrap;html=1;" parent="1" vertex="1">
          <mxGeometry x="450" width="120" height="80" as="geometry" />
        </mxCell>
        <mxCell id="1_1kWUtyBtne64YVCPKi-52" style="edgeStyle=orthogonalEdgeStyle;rounded=0;orthogonalLoop=1;jettySize=auto;html=1;endArrow=baseDash;endFill=0;" parent="1" source="1_1kWUtyBtne64YVCPKi-42" edge="1">
          <mxGeometry relative="1" as="geometry">
            <mxPoint x="757" y="325" as="targetPoint" />
          </mxGeometry>
        </mxCell>
        <mxCell id="1_1kWUtyBtne64YVCPKi-42" value="Contiennent" style="ellipse;whiteSpace=wrap;html=1;" parent="1" vertex="1">
          <mxGeometry x="697" y="185" width="120" height="80" as="geometry" />
        </mxCell>
        <mxCell id="1_1kWUtyBtne64YVCPKi-48" value="" style="edgeStyle=orthogonalEdgeStyle;rounded=0;orthogonalLoop=1;jettySize=auto;html=1;endArrow=baseDash;endFill=0;" parent="1" source="1_1kWUtyBtne64YVCPKi-46" target="1_1kWUtyBtne64YVCPKi-30" edge="1">
          <mxGeometry relative="1" as="geometry" />
        </mxCell>
        <mxCell id="1_1kWUtyBtne64YVCPKi-46" value="Rejoignent" style="ellipse;whiteSpace=wrap;html=1;" parent="1" vertex="1">
          <mxGeometry x="374" y="140" width="120" height="80" as="geometry" />
        </mxCell>
        <mxCell id="34b2mnpTwD89V751DP28-12" value="0.n" style="text;html=1;align=center;verticalAlign=middle;resizable=0;points=[];autosize=1;strokeColor=none;fillColor=none;" parent="1" vertex="1">
          <mxGeometry x="360" y="100" width="40" height="30" as="geometry" />
        </mxCell>
        <mxCell id="34b2mnpTwD89V751DP28-13" value="0.n" style="text;html=1;align=center;verticalAlign=middle;resizable=0;points=[];autosize=1;strokeColor=none;fillColor=none;" parent="1" vertex="1">
          <mxGeometry x="350" y="50" width="40" height="30" as="geometry" />
        </mxCell>
        <mxCell id="34b2mnpTwD89V751DP28-14" value="1.1" style="text;html=1;align=center;verticalAlign=middle;resizable=0;points=[];autosize=1;strokeColor=none;fillColor=none;" parent="1" vertex="1">
          <mxGeometry x="517" y="90" width="40" height="30" as="geometry" />
        </mxCell>
        <mxCell id="34b2mnpTwD89V751DP28-17" value="1.1" style="text;html=1;align=center;verticalAlign=middle;resizable=0;points=[];autosize=1;strokeColor=none;fillColor=none;" parent="1" vertex="1">
          <mxGeometry x="477" y="360" width="40" height="30" as="geometry" />
        </mxCell>
        <mxCell id="34b2mnpTwD89V751DP28-19" value="1.1" style="text;html=1;strokeColor=none;fillColor=none;align=center;verticalAlign=middle;whiteSpace=wrap;rounded=0;" parent="1" vertex="1">
          <mxGeometry x="757" y="292.5" width="60" height="30" as="geometry" />
        </mxCell>
        <mxCell id="UUWKYqGzad0E9Pj7y7_Q-7" style="edgeStyle=orthogonalEdgeStyle;rounded=0;orthogonalLoop=1;jettySize=auto;html=1;entryX=0.5;entryY=1;entryDx=0;entryDy=0;exitX=0.013;exitY=0.078;exitDx=0;exitDy=0;exitPerimeter=0;endArrow=baseDash;endFill=0;" edge="1" parent="1" source="igtIyiMLG_RaECPwUn3D-1" target="UUWKYqGzad0E9Pj7y7_Q-6">
          <mxGeometry relative="1" as="geometry" />
        </mxCell>
        <mxCell id="igtIyiMLG_RaECPwUn3D-1" value="Profil_MJ" style="swimlane;fontStyle=0;childLayout=stackLayout;horizontal=1;startSize=30;horizontalStack=0;resizeParent=1;resizeParentMax=0;resizeLast=0;collapsible=1;marginBottom=0;whiteSpace=wrap;html=1;" parent="1" vertex="1">
          <mxGeometry x="110" y="600" width="140" height="180" as="geometry" />
        </mxCell>
        <mxCell id="igtIyiMLG_RaECPwUn3D-2" value="pseudo" style="text;strokeColor=none;fillColor=none;align=left;verticalAlign=middle;spacingLeft=4;spacingRight=4;overflow=hidden;points=[[0,0.5],[1,0.5]];portConstraint=eastwest;rotatable=0;whiteSpace=wrap;html=1;" parent="igtIyiMLG_RaECPwUn3D-1" vertex="1">
          <mxGeometry y="30" width="140" height="30" as="geometry" />
        </mxCell>
        <mxCell id="igtIyiMLG_RaECPwUn3D-27" value="img_profil" style="text;strokeColor=none;fillColor=none;align=left;verticalAlign=middle;spacingLeft=4;spacingRight=4;overflow=hidden;points=[[0,0.5],[1,0.5]];portConstraint=eastwest;rotatable=0;whiteSpace=wrap;html=1;" parent="igtIyiMLG_RaECPwUn3D-1" vertex="1">
          <mxGeometry y="60" width="140" height="30" as="geometry" />
        </mxCell>
        <mxCell id="igtIyiMLG_RaECPwUn3D-3" value="date_creation" style="text;strokeColor=none;fillColor=none;align=left;verticalAlign=middle;spacingLeft=4;spacingRight=4;overflow=hidden;points=[[0,0.5],[1,0.5]];portConstraint=eastwest;rotatable=0;whiteSpace=wrap;html=1;" parent="igtIyiMLG_RaECPwUn3D-1" vertex="1">
          <mxGeometry y="90" width="140" height="30" as="geometry" />
        </mxCell>
        <mxCell id="igtIyiMLG_RaECPwUn3D-6" value="jeux_maitrises" style="text;strokeColor=none;fillColor=none;align=left;verticalAlign=middle;spacingLeft=4;spacingRight=4;overflow=hidden;points=[[0,0.5],[1,0.5]];portConstraint=eastwest;rotatable=0;whiteSpace=wrap;html=1;" parent="igtIyiMLG_RaECPwUn3D-1" vertex="1">
          <mxGeometry y="120" width="140" height="30" as="geometry" />
        </mxCell>
        <mxCell id="igtIyiMLG_RaECPwUn3D-26" value="description" style="text;strokeColor=none;fillColor=none;align=left;verticalAlign=middle;spacingLeft=4;spacingRight=4;overflow=hidden;points=[[0,0.5],[1,0.5]];portConstraint=eastwest;rotatable=0;whiteSpace=wrap;html=1;" parent="igtIyiMLG_RaECPwUn3D-1" vertex="1">
          <mxGeometry y="150" width="140" height="30" as="geometry" />
        </mxCell>
        <mxCell id="UUWKYqGzad0E9Pj7y7_Q-9" style="edgeStyle=orthogonalEdgeStyle;rounded=0;orthogonalLoop=1;jettySize=auto;html=1;entryX=0.5;entryY=1;entryDx=0;entryDy=0;exitX=0.67;exitY=1.033;exitDx=0;exitDy=0;exitPerimeter=0;endArrow=baseDash;endFill=0;" edge="1" parent="1" source="igtIyiMLG_RaECPwUn3D-15" target="UUWKYqGzad0E9Pj7y7_Q-6">
          <mxGeometry relative="1" as="geometry" />
        </mxCell>
        <mxCell id="igtIyiMLG_RaECPwUn3D-11" value="Profil_joueur" style="swimlane;fontStyle=0;childLayout=stackLayout;horizontal=1;startSize=30;horizontalStack=0;resizeParent=1;resizeParentMax=0;resizeLast=0;collapsible=1;marginBottom=0;whiteSpace=wrap;html=1;" parent="1" vertex="1">
          <mxGeometry x="260" y="600" width="140" height="180" as="geometry" />
        </mxCell>
        <mxCell id="igtIyiMLG_RaECPwUn3D-12" value="pseudo" style="text;strokeColor=none;fillColor=none;align=left;verticalAlign=middle;spacingLeft=4;spacingRight=4;overflow=hidden;points=[[0,0.5],[1,0.5]];portConstraint=eastwest;rotatable=0;whiteSpace=wrap;html=1;" parent="igtIyiMLG_RaECPwUn3D-11" vertex="1">
          <mxGeometry y="30" width="140" height="30" as="geometry" />
        </mxCell>
        <mxCell id="igtIyiMLG_RaECPwUn3D-28" value="img_profil" style="text;strokeColor=none;fillColor=none;align=left;verticalAlign=middle;spacingLeft=4;spacingRight=4;overflow=hidden;points=[[0,0.5],[1,0.5]];portConstraint=eastwest;rotatable=0;whiteSpace=wrap;html=1;" parent="igtIyiMLG_RaECPwUn3D-11" vertex="1">
          <mxGeometry y="60" width="140" height="30" as="geometry" />
        </mxCell>
        <mxCell id="igtIyiMLG_RaECPwUn3D-13" value="date_creation" style="text;strokeColor=none;fillColor=none;align=left;verticalAlign=middle;spacingLeft=4;spacingRight=4;overflow=hidden;points=[[0,0.5],[1,0.5]];portConstraint=eastwest;rotatable=0;whiteSpace=wrap;html=1;" parent="igtIyiMLG_RaECPwUn3D-11" vertex="1">
          <mxGeometry y="90" width="140" height="30" as="geometry" />
        </mxCell>
        <mxCell id="igtIyiMLG_RaECPwUn3D-14" value="jeux_maitrises" style="text;strokeColor=none;fillColor=none;align=left;verticalAlign=middle;spacingLeft=4;spacingRight=4;overflow=hidden;points=[[0,0.5],[1,0.5]];portConstraint=eastwest;rotatable=0;whiteSpace=wrap;html=1;" parent="igtIyiMLG_RaECPwUn3D-11" vertex="1">
          <mxGeometry y="120" width="140" height="30" as="geometry" />
        </mxCell>
        <mxCell id="igtIyiMLG_RaECPwUn3D-15" value="description" style="text;strokeColor=none;fillColor=none;align=left;verticalAlign=middle;spacingLeft=4;spacingRight=4;overflow=hidden;points=[[0,0.5],[1,0.5]];portConstraint=eastwest;rotatable=0;whiteSpace=wrap;html=1;" parent="igtIyiMLG_RaECPwUn3D-11" vertex="1">
          <mxGeometry y="150" width="140" height="30" as="geometry" />
        </mxCell>
        <mxCell id="UUWKYqGzad0E9Pj7y7_Q-3" style="edgeStyle=orthogonalEdgeStyle;rounded=0;orthogonalLoop=1;jettySize=auto;html=1;endArrow=baseDash;endFill=0;" edge="1" parent="1" source="igtIyiMLG_RaECPwUn3D-18" target="igtIyiMLG_RaECPwUn3D-11">
          <mxGeometry relative="1" as="geometry" />
        </mxCell>
        <mxCell id="UUWKYqGzad0E9Pj7y7_Q-4" style="edgeStyle=orthogonalEdgeStyle;rounded=0;orthogonalLoop=1;jettySize=auto;html=1;entryX=0.5;entryY=0;entryDx=0;entryDy=0;endArrow=baseDash;endFill=0;" edge="1" parent="1" source="igtIyiMLG_RaECPwUn3D-18" target="igtIyiMLG_RaECPwUn3D-1">
          <mxGeometry relative="1" as="geometry" />
        </mxCell>
        <mxCell id="igtIyiMLG_RaECPwUn3D-18" value="Créent" style="ellipse;whiteSpace=wrap;html=1;" parent="1" vertex="1">
          <mxGeometry x="207" y="265" width="120" height="80" as="geometry" />
        </mxCell>
        <mxCell id="igtIyiMLG_RaECPwUn3D-19" value="1.1" style="text;html=1;align=center;verticalAlign=middle;resizable=0;points=[];autosize=1;strokeColor=none;fillColor=none;" parent="1" vertex="1">
          <mxGeometry x="180" y="570" width="40" height="30" as="geometry" />
        </mxCell>
        <mxCell id="igtIyiMLG_RaECPwUn3D-20" value="0.n" style="text;html=1;align=center;verticalAlign=middle;resizable=0;points=[];autosize=1;strokeColor=none;fillColor=none;" parent="1" vertex="1">
          <mxGeometry x="220" y="200" width="40" height="30" as="geometry" />
        </mxCell>
        <mxCell id="igtIyiMLG_RaECPwUn3D-23" style="edgeStyle=orthogonalEdgeStyle;rounded=0;orthogonalLoop=1;jettySize=auto;html=1;endArrow=baseDash;endFill=0;" parent="1" source="igtIyiMLG_RaECPwUn3D-21" target="1_1kWUtyBtne64YVCPKi-26" edge="1">
          <mxGeometry relative="1" as="geometry">
            <Array as="points">
              <mxPoint x="360" y="550" />
              <mxPoint x="360" y="360" />
              <mxPoint x="350" y="360" />
              <mxPoint x="350" y="175" />
            </Array>
          </mxGeometry>
        </mxCell>
        <mxCell id="UUWKYqGzad0E9Pj7y7_Q-5" style="edgeStyle=orthogonalEdgeStyle;rounded=0;orthogonalLoop=1;jettySize=auto;html=1;endArrow=baseDash;endFill=0;" edge="1" parent="1" source="igtIyiMLG_RaECPwUn3D-21" target="igtIyiMLG_RaECPwUn3D-15">
          <mxGeometry relative="1" as="geometry" />
        </mxCell>
        <mxCell id="igtIyiMLG_RaECPwUn3D-21" value="Recherchent" style="ellipse;whiteSpace=wrap;html=1;" parent="1" vertex="1">
          <mxGeometry x="450" y="510" width="120" height="80" as="geometry" />
        </mxCell>
        <mxCell id="igtIyiMLG_RaECPwUn3D-29" value="0.n" style="text;html=1;align=center;verticalAlign=middle;resizable=0;points=[];autosize=1;strokeColor=none;fillColor=none;" parent="1" vertex="1">
          <mxGeometry x="400" y="730" width="40" height="30" as="geometry" />
        </mxCell>
        <mxCell id="igtIyiMLG_RaECPwUn3D-30" value="1.1" style="text;html=1;align=center;verticalAlign=middle;resizable=0;points=[];autosize=1;strokeColor=none;fillColor=none;" parent="1" vertex="1">
          <mxGeometry x="327" y="570" width="40" height="30" as="geometry" />
        </mxCell>
        <mxCell id="igtIyiMLG_RaECPwUn3D-31" value="0.n" style="text;html=1;align=center;verticalAlign=middle;resizable=0;points=[];autosize=1;strokeColor=none;fillColor=none;" parent="1" vertex="1">
          <mxGeometry x="697" y="120" width="40" height="30" as="geometry" />
        </mxCell>
        <mxCell id="UUWKYqGzad0E9Pj7y7_Q-1" style="edgeStyle=orthogonalEdgeStyle;rounded=0;orthogonalLoop=1;jettySize=auto;html=1;endArrow=baseDash;endFill=0;" edge="1" parent="1" source="1_1kWUtyBtne64YVCPKi-25" target="1_1kWUtyBtne64YVCPKi-41">
          <mxGeometry relative="1" as="geometry" />
        </mxCell>
        <mxCell id="UUWKYqGzad0E9Pj7y7_Q-8" style="edgeStyle=orthogonalEdgeStyle;rounded=0;orthogonalLoop=1;jettySize=auto;html=1;entryX=0;entryY=0.5;entryDx=0;entryDy=0;endArrow=baseDash;endFill=0;" edge="1" parent="1" source="UUWKYqGzad0E9Pj7y7_Q-6" target="1_1kWUtyBtne64YVCPKi-24">
          <mxGeometry relative="1" as="geometry" />
        </mxCell>
        <mxCell id="UUWKYqGzad0E9Pj7y7_Q-6" value="Envoie message" style="ellipse;whiteSpace=wrap;html=1;" vertex="1" parent="1">
          <mxGeometry x="20" y="260" width="120" height="80" as="geometry" />
        </mxCell>
        <mxCell id="UUWKYqGzad0E9Pj7y7_Q-10" value="0.n" style="text;html=1;align=center;verticalAlign=middle;resizable=0;points=[];autosize=1;strokeColor=none;fillColor=none;" vertex="1" parent="1">
          <mxGeometry x="157" y="60" width="40" height="30" as="geometry" />
        </mxCell>
        <mxCell id="UUWKYqGzad0E9Pj7y7_Q-11" value="1.1" style="text;html=1;align=center;verticalAlign=middle;resizable=0;points=[];autosize=1;strokeColor=none;fillColor=none;" vertex="1" parent="1">
          <mxGeometry x="90" y="438" width="40" height="30" as="geometry" />
        </mxCell>
        <mxCell id="UUWKYqGzad0E9Pj7y7_Q-12" value="1.1" style="text;html=1;align=center;verticalAlign=middle;resizable=0;points=[];autosize=1;strokeColor=none;fillColor=none;" vertex="1" parent="1">
          <mxGeometry x="40" y="468" width="40" height="30" as="geometry" />
        </mxCell>
      </root>
    </mxGraphModel>
  </diagram>
</mxfile>
